<?xml version="1.0" ?><svg enable-background="new 0 0 100 100" height="100px" id="user_x5F_experience" version="1.1" viewBox="0 0 100 100" width="100px" xml:space="preserve" xmlns="http://www.w3.org/2000/svg" xmlns:xlink="http://www.w3.org/1999/xlink"><path d="M68.32,50.085c12.863-7.465,21.682-22.519,21.682-39.849h-10c0,17.236-10.832,31.581-25.002,34.355V10.049H45v34.543  c-14.17-2.774-25.002-17.119-25.002-34.355h-10c0,17.33,8.818,32.384,21.683,39.849C18.816,57.55,9.998,72.604,9.998,89.934h10  c0-17.236,10.832-31.581,25.002-34.355v34.373h10V55.578c14.17,2.774,25.002,17.119,25.002,34.355h10  C90.002,72.604,81.184,57.55,68.32,50.085z"/></svg>