<?xml version="1.0" ?><!DOCTYPE svg  PUBLIC '-//W3C//DTD SVG 1.1//EN'  'http://www.w3.org/Graphics/SVG/1.1/DTD/svg11.dtd'><svg height="512px" style="enable-background:new 0 0 512 512;" version="1.1" viewBox="0 0 512 512" width="512px" xml:space="preserve" xmlns="http://www.w3.org/2000/svg" xmlns:xlink="http://www.w3.org/1999/xlink"><g id="_x37_04_x2C__Arrow_x2C__chart_x2C__curve_x2C__experience_x2C__goal"><g><path d="M220.024,468.174c-1.772,0-3.225-1.442-3.225-3.226c0-1.782,1.453-3.223,3.225-3.223h224.608    c1.77,0,3.222,1.44,3.222,3.223c0,1.783-1.452,3.226-3.222,3.226H220.024z M50.487,468.515c-1.769,0-3.211-1.442-3.211-3.226    c0-1.781,1.442-3.224,3.211-3.224h39.805c1.769,0,3.211,1.442,3.211,3.224c0,1.783-1.442,3.226-3.211,3.226H50.487z     M155.762,131.962V90.807h274.464c-5.373,14.365-10.918,28.075-16.579,41.155H155.762z M155.762,179.564V138.41h255.053    c-6.433,14.496-13.041,28.207-19.762,41.154H155.762z M155.762,227.168v-41.154H387.67c-7.837,14.705-15.832,28.414-23.907,41.154    H155.762z M155.762,274.772v-41.156h203.859c-9.815,15.048-19.727,28.73-29.609,41.156H155.762z M155.762,322.375v-41.156h169.049    c-13.002,15.756-25.925,29.387-38.481,41.156H155.762z M155.762,369.979v-41.154h123.541    c-20.327,18.139-39.527,31.43-56.411,41.154H155.762z M485.262,434.306v-32.242H158.983c-1.779,0-3.222-1.442-3.222-3.226v-22.411    h55.334c-31.561,16.226-52.425,19.214-52.607,19.241c-1.758,0.262-2.952,1.912-2.674,3.669c0.26,1.73,1.898,2.936,3.643,2.674    c0.211-0.026,26.539-3.801,64.852-25.584h253.025c1.769,0,3.222-1.469,3.222-3.224c0-1.783-1.453-3.225-3.222-3.225H235.136    c16.382-10.224,34.523-23.617,53.512-41.154h188.686c1.769,0,3.222-1.469,3.222-3.226c0-1.781-1.453-3.224-3.222-3.224H295.45    c12.294-11.9,24.864-25.531,37.485-41.156h144.398c1.769,0,3.222-1.439,3.222-3.223s-1.453-3.224-3.222-3.224H338.059    c9.739-12.478,19.506-26.161,29.15-41.156h110.125c1.769,0,3.222-1.467,3.222-3.224c0-1.783-1.453-3.225-3.222-3.225H371.259    c7.984-12.793,15.874-26.475,23.619-41.154h82.456c1.769,0,3.222-1.442,3.222-3.224c0-1.782-1.453-3.226-3.222-3.226h-79.072    c6.657-12.947,13.185-26.684,19.555-41.154h59.518c1.769,0,3.222-1.469,3.222-3.225c0-1.783-1.453-3.224-3.222-3.224h-56.689    c5.622-13.08,11.129-26.79,16.463-41.155h40.227c1.769,0,3.222-1.468,3.222-3.225c0-1.782-1.453-3.223-3.222-3.223h-37.906    c5.31-14.628,10.42-29.884,15.361-45.849l5.281,12.268c0.709,1.627,2.598,2.387,4.222,1.678c1.636-0.707,2.397-2.594,1.702-4.22    c-1.965-4.535-6.71-18.35-9.461-21.338c-0.369-0.341-0.814-0.602-1.323-0.76c-0.618-0.184-1.274-0.184-1.878,0    c-4.99,1.809-14.666,8.467-19.814,11.455c-1.52,0.891-2.046,2.857-1.169,4.404c0.881,1.52,2.857,2.044,4.391,1.179l12.048-7.024    c-5.19,16.828-10.605,32.898-16.189,48.207H155.762V68.08H123.52v16.279H80.869c-1.769,0-3.211,1.44-3.211,3.223    c0,1.757,1.442,3.225,3.211,3.225h42.651v41.155H80.869c-1.769,0-3.211,1.44-3.211,3.224c0,1.756,1.442,3.225,3.211,3.225h42.651    v41.154H80.869c-1.769,0-3.211,1.443-3.211,3.226c0,1.781,1.442,3.224,3.211,3.224h42.651v41.154H80.869    c-1.769,0-3.211,1.441-3.211,3.225c0,1.757,1.442,3.224,3.211,3.224h42.651v41.156H80.869c-1.769,0-3.211,1.44-3.211,3.224    s1.442,3.223,3.211,3.223h42.651v41.156H80.869c-1.769,0-3.211,1.442-3.211,3.224c0,1.757,1.442,3.226,3.211,3.226h42.651v41.154    H80.869c-1.769,0-3.211,1.441-3.211,3.225c0,1.755,1.442,3.224,3.211,3.224h42.651v22.411c0,1.783-1.442,3.226-3.226,3.226H90.043    v32.242h30.251c1.783,0,3.226,1.442,3.226,3.198v25.794h32.242v-25.794c0-1.756,1.442-3.198,3.222-3.198H485.262z M29.963,485.999    c-1.783,0-3.225-1.442-3.225-3.226c0-1.781,1.442-3.224,3.225-3.224h324.573c1.783,0,3.226,1.442,3.226,3.224    c0,1.783-1.442,3.226-3.226,3.226H29.963z"/></g></g><g id="Layer_1"/></svg>