<?xml version="1.0" ?><!DOCTYPE svg  PUBLIC '-//W3C//DTD SVG 1.1//EN'  'http://www.w3.org/Graphics/SVG/1.1/DTD/svg11.dtd'><svg enable-background="new 0 0 24 24" height="24px" id="Layer_1" version="1.1" viewBox="0 0 24 24" width="24px" xml:space="preserve" xmlns="http://www.w3.org/2000/svg" xmlns:xlink="http://www.w3.org/1999/xlink"><g><path d="M4.5,15.5C4.224,15.5,4,15.275,4,15V2.547C4,1.622,3.397,1,2.5,1S1,1.622,1,2.547V15c0,0.275-0.224,0.5-0.5,0.5   S0,15.275,0,15V2.547C0,1.071,1.051,0,2.5,0S5,1.071,5,2.547V15C5,15.275,4.776,15.5,4.5,15.5z"/><path d="M14.875,24h-5.75C3.923,24,0,20.27,0,15.32c0-0.276,0.224-0.5,0.5-0.5S1,15.044,1,15.32C1,19.698,4.493,23,9.125,23h5.75   C19.583,23,23,19.887,23,15.598v-0.793C23,10.116,19.203,6,14.875,6h-5.75C8.166,6,7.469,6.631,7.469,7.5S8.166,9,9.125,9h5.75   C17.635,9,20,12.116,20,14.668v0.414C20,17.702,17.605,20,14.875,20h-5.75C6.443,20,4,17.605,4,14.977c0-0.274,0.224-0.5,0.5-0.5   s0.5,0.226,0.5,0.5C5,17.045,7.005,19,9.125,19h5.75C17.034,19,19,17.133,19,15.082v-0.414C19,12.63,17,10,14.875,10h-5.75   c-1.514,0-2.656-1.075-2.656-2.5S7.611,5,9.125,5h5.75C19.736,5,24,9.582,24,14.805v0.793C24,20.466,20.163,24,14.875,24z"/></g></svg>