<?xml version="1.0" ?><!DOCTYPE svg  PUBLIC '-//W3C//DTD SVG 1.1//EN'  'http://www.w3.org/Graphics/SVG/1.1/DTD/svg11.dtd'><svg enable-background="new 0 0 50 50" height="50px" id="Layer_1" version="1.1" viewBox="0 0 50 50" width="50px" xml:space="preserve" xmlns="http://www.w3.org/2000/svg" xmlns:xlink="http://www.w3.org/1999/xlink"><g><path d="M29.887,28.318h-9.938c-0.859,0-1.554,0.709-1.554,1.582c0,0.875,0.694,1.584,1.554,1.584h9.938   c0.855,0,1.555-0.709,1.555-1.584C31.441,29.027,30.742,28.318,29.887,28.318z" fill="#404041"/><path d="M38.383,1.176H11.619c-6.188,0-11.203,4.812-11.203,10.748v26.154c0,5.934,5.016,10.746,11.203,10.746   h26.764c6.188,0,11.201-4.813,11.201-10.746V11.924C49.584,5.987,44.57,1.176,38.383,1.176z M38.485,31.862   c0,0-1.436,5.491-6.491,7.038H18.511c0,0-6.321-1.462-6.996-7.465V18.31c0,0,0.51-5.834,7.248-7.209h7.669   c0,0,6.828,0.774,7.252,8.667l1.179,1.854h2.021c0,0,1.603-0.568,1.603,1.233V31.862z" fill="#404041"/><path d="M20.18,21.621h4.697c0.858,0,1.549-0.712,1.549-1.586c0-0.871-0.69-1.58-1.549-1.58H20.18   c-0.856,0-1.553,0.709-1.553,1.58C18.627,20.909,19.323,21.621,20.18,21.621z" fill="#404041"/></g></svg>