<?xml version="1.0" ?><!DOCTYPE svg  PUBLIC '-//W3C//DTD SVG 1.1//EN'  'http://www.w3.org/Graphics/SVG/1.1/DTD/svg11.dtd'><svg enable-background="new 0 0 48 48" height="48px" version="1.1" viewBox="0 0 48 48" width="48px" xml:space="preserve" xmlns="http://www.w3.org/2000/svg" xmlns:xlink="http://www.w3.org/1999/xlink"><g id="Layer_4"><g><circle cx="10.18" cy="44.979" fill="#241F20" r="2.995"/><circle cx="37.738" cy="44.979" fill="#241F20" r="2.995"/><path d="M40.697,37.156V3.426v-0.61v-2.79h-2.789H10.016H7.228v2.79v1.397v32.943H3.676v3.57h40.648v-3.57H40.697z     M37.908,5.605v31.551H10.016V6.68V5.605V2.816h2.79h22.315h2.787V5.605z" fill="#241F20"/><path d="M26.978,17.831V16.48v-0.688v-0.799v-0.019H25.47h-3.013H22.19h-1.24v0.818v0.688v0.395v0.956h-3.917    h-0.256h-2.395v2.397v0.741v10.174v0.662V34.7h19.165v-2.896v-0.662v-9.977v-0.938v-2.397H31.15H26.978z M25.705,17.116v0.714    h-3.484v-0.714v-0.871h0.871h1.499h0.243h0.872V17.116z" fill="#241F20"/></g></g></svg>