<?xml version="1.0" ?><svg viewBox="0 0 64 64" xmlns="http://www.w3.org/2000/svg"><title/><g id="stationary"><path d="M50.51,16.9l-1-4.89a1,1,0,0,0-.56-.7,1,1,0,0,0-.89,0L43.62,13.7a1,1,0,0,0-.44.46l-4.18,9V3a1,1,0,0,0-1-1H26a1,1,0,0,0-1,1V22.89L20.32,10.65a3,3,0,0,0-3.87-1.73l-1.86.71a3,3,0,0,0-1.67,1.58,3,3,0,0,0-.07,2.3l1.78,4.67-2.8,1.07a1,1,0,0,0-.56.52,1.08,1.08,0,0,0,0,.77l2.14,5.6a1,1,0,0,0,.94.64,1.13,1.13,0,0,0,.36-.06,1,1,0,0,0,.57-1.29l-1.78-4.67L15.34,20l4.19,11h-.24A3,3,0,0,0,17,32a3,3,0,0,0-.71,2.38l3.45,25a3,3,0,0,0,3,2.59H41.26a3,3,0,0,0,3-2.59l3.45-25A3,3,0,0,0,47,32a3,3,0,0,0-2.26-1h-.56l6.29-13.47A1,1,0,0,0,50.51,16.9ZM27,4H37V7H36a1,1,0,0,0,0,2h1v3H34a1,1,0,0,0,0,2h3v3H36a1,1,0,0,0,0,2h1v3H34a1,1,0,0,0,0,2h3v3H36a1,1,0,0,0,0,2h1v2H28.1L27,28.12ZM17.21,19.33,21,17.9,26,31H21.67ZM44.71,33a1,1,0,0,1,.75.34,1,1,0,0,1,.24.8L43,54H21L18.3,34.14a1,1,0,0,1,.24-.8,1,1,0,0,1,.75-.34Z"/></g></svg>