<?xml version="1.0" ?><svg xmlns="http://www.w3.org/2000/svg" xmlns:xlink="http://www.w3.org/1999/xlink" version="1.1" viewBox="0 0 512 512" style="enable-background:new 0 0 512 512;" xml:space="preserve"><g id="_x33_0_x2C__Timeline_x2C__priority_x2C__structure_x2C__experience_x2C__infographic_x2C__workflow"><g><g><path style="fill:#5596FB;" d="M471,1H141c-5.522,0-10,4.478-10,10v91.88c0,5.522,4.478,10,10,10h330c5.522,0,10-4.478,10-10V11     C481,5.478,476.522,1,471,1z M461,92.88H151V21h310V92.88z"/><path style="fill:#5596FB;" d="M471,266.42H141c-5.522,0-10,4.478-10,10v91.87c0,5.522,4.478,10,10,10h330     c5.522,0,10-4.478,10-10v-91.87C481,270.897,476.522,266.42,471,266.42z M461,358.29H151v-71.87h310V358.29z"/><path style="fill:#5596FB;" d="M191,66.94h230c5.522,0,10-4.478,10-10s-4.478-10-10-10H191c-5.522,0-10,4.478-10,10     S185.478,66.94,191,66.94z"/><path style="fill:#5596FB;" d="M191,332.35h230c5.522,0,10-4.478,10-10s-4.478-10-10-10H191c-5.522,0-10,4.478-10,10     S185.478,332.35,191,332.35z"/></g><g><path style="fill:#283954;" d="M471,133.71H141c-5.522,0-10,4.478-10,10v91.87c0,5.522,4.478,10,10,10h330     c5.522,0,10-4.478,10-10v-91.87C481,138.188,476.522,133.71,471,133.71z M461,225.58H151v-71.87h310V225.58z"/><path style="fill:#283954;" d="M471,399.12H141c-5.522,0-10,4.478-10,10V501c0,5.522,4.478,10,10,10h330c5.522,0,10-4.478,10-10     v-91.88C481,403.598,476.522,399.12,471,399.12z M461,491H151v-71.88h310V491z"/><path style="fill:#283954;" d="M191,199.65h230c5.522,0,10-4.478,10-10s-4.478-10-10-10H191c-5.522,0-10,4.478-10,10     S185.478,199.65,191,199.65z"/><path style="fill:#283954;" d="M91,56.94c0-16.542-13.458-30-30-30s-30,13.458-30,30c0,13.036,8.361,24.152,20,28.28v76.15     c-11.639,4.128-20,15.243-20,28.28s8.361,24.152,20,28.28v76.14c-11.639,4.128-20,15.243-20,28.28s8.361,24.152,20,28.28v76.15     c-11.639,4.128-20,15.243-20,28.28c0,16.542,13.458,30,30,30s30-13.458,30-30c0-13.036-8.361-24.152-20-28.28v-76.15     c11.639-4.128,20-15.243,20-28.28s-8.361-24.152-20-28.28v-76.14c11.639-4.128,20-15.243,20-28.28s-8.361-24.152-20-28.28V85.22     C82.639,81.092,91,69.977,91,56.94z M61,46.94c5.514,0,10,4.486,10,10s-4.486,10-10,10s-10-4.486-10-10S55.486,46.94,61,46.94z      M61,465.06c-5.514,0-10-4.486-10-10s4.486-10,10-10s10,4.486,10,10S66.514,465.06,61,465.06z M61,332.35     c-5.514,0-10-4.486-10-10s4.486-10,10-10s10,4.486,10,10S66.514,332.35,61,332.35z M61,199.65c-5.514,0-10-4.486-10-10     s4.486-10,10-10s10,4.486,10,10S66.514,199.65,61,199.65z"/><path style="fill:#283954;" d="M191,465.06h230c5.522,0,10-4.478,10-10s-4.478-10-10-10H191c-5.522,0-10,4.478-10,10     S185.478,465.06,191,465.06z"/></g></g></g><g id="Layer_1"/></svg>